<?xml version="1.0" encoding="UTF-8" standalone="no"?><svg xmlns="http://www.w3.org/2000/svg" xmlns:xlink="http://www.w3.org/1999/xlink" contentStyleType="text/css" height="773px" preserveAspectRatio="none" style="width:1020px;height:773px;background:#FFFFFF;" version="1.1" viewBox="0 0 1020 773" width="1020px" zoomAndPan="magnify"><defs/><g><rect fill="#FFFFFF" height="757.5938" style="stroke:#181818;stroke-width:1.5;" width="1009" x="5" y="10"/><path d="M170,10 L170,19.2969 L160,29.2969 L5,29.2969 " fill="none" style="stroke:#181818;stroke-width:1.5;"/><text fill="#000000" font-family="sans-serif" font-size="14" lengthAdjust="spacing" textLength="155" x="8" y="23.9951">Temperature controll</text><!--cluster Myself:Human--><g id="cluster_Myself:Human"><rect fill="none" height="192" rx="2.5" ry="2.5" style="stroke:#181818;stroke-width:1.0;" width="149.5" x="17" y="175.3955"/><text fill="#000000" font-family="sans-serif" font-size="14" font-weight="bold" lengthAdjust="spacing" textLength="115" x="34.25" y="190.3906">Myself:Human</text></g><!--cluster pim:PIM--><g id="cluster_pim:PIM"><rect fill="none" height="192" rx="2.5" ry="2.5" style="stroke:#181818;stroke-width:1.0;" width="488.5" x="228.5" y="79.3955"/><text fill="#000000" font-family="sans-serif" font-size="14" font-weight="bold" lengthAdjust="spacing" textLength="65" x="440.25" y="94.3906">pim:PIM</text></g><!--cluster psm:PSM--><g id="cluster_psm:PSM"><rect fill="none" height="175" rx="2.5" ry="2.5" style="stroke:#181818;stroke-width:1.0;" width="267" x="403" y="367.3955"/><text fill="#000000" font-family="sans-serif" font-size="14" font-weight="bold" lengthAdjust="spacing" textLength="74" x="499.5" y="382.3906">psm:PSM</text></g><!--cluster sim:simulation--><g id="cluster_sim:simulation"><rect fill="none" height="113" rx="2.5" ry="2.5" style="stroke:#181818;stroke-width:1.0;" width="170" x="554" y="638.3955"/><text fill="#000000" font-family="sans-serif" font-size="14" font-weight="bold" lengthAdjust="spacing" textLength="122" x="578" y="653.3906">sim:simulation</text></g><!--cluster es:Energy_saver--><g id="cluster_es:Energy_saver"><rect fill="none" height="192" rx="2.5" ry="2.5" style="stroke:#181818;stroke-width:1.0;" width="159.5" x="837.5" y="175.3955"/><text fill="#000000" font-family="sans-serif" font-size="14" font-weight="bold" lengthAdjust="spacing" textLength="129" x="852.75" y="190.3906">es:Energy_saver</text></g><text fill="#000000" font-family="sans-serif" font-size="14" lengthAdjust="spacing" textLength="72" x="112.5" y="154.0938">send_cmd</text><rect fill="#F1F1F1" height="12" style="stroke:#181818;stroke-width:1.5;" width="12" x="142.5" y="169.3955"/><text fill="#000000" font-family="sans-serif" font-size="14" lengthAdjust="spacing" textLength="76" x="87" y="386.3906">get_values</text><rect fill="#F1F1F1" height="12" style="stroke:#181818;stroke-width:1.5;" width="12" x="119" y="361.3955"/><text fill="#000000" font-family="sans-serif" font-size="14" lengthAdjust="spacing" textLength="79" x="307" y="290.3906">get_sensor</text><rect fill="#F1F1F1" height="12" style="stroke:#181818;stroke-width:1.5;" width="12" x="340.5" y="265.3955"/><text fill="#000000" font-family="sans-serif" font-size="14" lengthAdjust="spacing" textLength="109" x="400.5" y="290.3906">request_sensor</text><rect fill="#F1F1F1" height="12" style="stroke:#181818;stroke-width:1.5;" width="12" x="449" y="265.3955"/><text fill="#000000" font-family="sans-serif" font-size="14" lengthAdjust="spacing" textLength="123" x="522.5" y="290.3906">request_actuator</text><rect fill="#F1F1F1" height="12" style="stroke:#181818;stroke-width:1.5;" width="12" x="578" y="265.3955"/><text fill="#000000" font-family="sans-serif" font-size="14" lengthAdjust="spacing" textLength="104" x="194.5" y="290.3906">human_output</text><rect fill="#F1F1F1" height="12" style="stroke:#181818;stroke-width:1.5;" width="12" x="240.5" y="265.3955"/><text fill="#000000" font-family="sans-serif" font-size="14" lengthAdjust="spacing" textLength="93" x="652.5" y="290.3906">human_input</text><rect fill="#F1F1F1" height="12" style="stroke:#181818;stroke-width:1.5;" width="12" x="693" y="265.3955"/><text fill="#000000" font-family="sans-serif" font-size="14" lengthAdjust="spacing" textLength="140" x="492" y="58.0938">guard_temperature</text><rect fill="#F1F1F1" height="12" style="stroke:#181818;stroke-width:1.5;" width="12" x="556" y="73.3955"/><text fill="#000000" font-family="sans-serif" font-size="14" lengthAdjust="spacing" textLength="95" x="638" y="58.0938">guard_human</text><rect fill="#F1F1F1" height="12" style="stroke:#181818;stroke-width:1.5;" width="12" x="679.5" y="73.3955"/><text fill="#000000" font-family="sans-serif" font-size="14" lengthAdjust="spacing" textLength="78" x="480" y="346.0938">require_val</text><rect fill="#F1F1F1" height="12" style="stroke:#181818;stroke-width:1.5;" width="12" x="513" y="361.3955"/><text fill="#000000" font-family="sans-serif" font-size="14" lengthAdjust="spacing" textLength="102" x="370" y="346.0938">provide_temp</text><rect fill="#F1F1F1" height="12" style="stroke:#181818;stroke-width:1.5;" width="12" x="415" y="361.3955"/><text fill="#000000" font-family="sans-serif" font-size="14" lengthAdjust="spacing" textLength="147" x="578.5" y="346.0938">provide_lum_motion</text><rect fill="#F1F1F1" height="12" style="stroke:#181818;stroke-width:1.5;" width="12" x="646" y="361.3955"/><text fill="#000000" font-family="sans-serif" font-size="14" lengthAdjust="spacing" textLength="41" x="619.5" y="561.3906">MQTT</text><rect fill="#F1F1F1" height="12" style="stroke:#181818;stroke-width:1.5;" width="12" x="634" y="536.3955"/><text fill="#000000" font-family="sans-serif" font-size="14" lengthAdjust="spacing" textLength="57" x="611" y="617.0938">toMQTT</text><rect fill="#F1F1F1" height="12" style="stroke:#181818;stroke-width:1.5;" width="12" x="633.5" y="632.3955"/><text fill="#000000" font-family="sans-serif" font-size="14" lengthAdjust="spacing" textLength="63" x="824" y="154.0938">get_cmd</text><rect fill="#F1F1F1" height="12" style="stroke:#181818;stroke-width:1.5;" width="12" x="849.5" y="169.3955"/><text fill="#000000" font-family="sans-serif" font-size="14" lengthAdjust="spacing" textLength="93" x="843.5" y="386.3906">provide_cmd</text><rect fill="#F1F1F1" height="12" style="stroke:#181818;stroke-width:1.5;" width="12" x="884" y="361.3955"/><!--link send_cmd to human_input--><g id="link_send_cmd_human_input"><path d="M154.655,176.9855 C195.05,181.2605 443.86,208.5895 642,253.3955 C658.1,257.0365 676.317,262.7585 687.73,266.5425 " fill="none" id="send_cmd-to-human_input" style="stroke:#181818;stroke-width:1.0;"/><polygon fill="#181818" points="692.748,268.2275,685.4898,261.5703,688.0082,266.6357,682.9428,269.154,692.748,268.2275" style="stroke:#181818;stroke-width:1.0;"/></g><!--link send_cmd to get_cmd--><g id="link_send_cmd_get_cmd"><path d="M154.675,173.7155 C198.59,160.9505 488.661,80.9155 719.5,123.3955 C768.192,132.3565 822.006,157.8935 844.809,169.5115 " fill="none" id="send_cmd-to-get_cmd" style="stroke:#181818;stroke-width:1.0;"/><polygon fill="#181818" points="849.435,171.8955,843.2668,164.2174,844.9903,169.6053,839.6025,171.3289,849.435,171.8955" style="stroke:#181818;stroke-width:1.0;"/></g><!--link human_output to get_values--><g id="link_human_output_get_values"><path d="M240.441,277.4495 C220.312,292.9585 159.325,339.9485 135.088,358.6225 " fill="none" id="human_output-to-get_values" style="stroke:#181818;stroke-width:1.0;"/><polygon fill="#181818" points="131.008,361.7665,140.5785,359.4416,134.9686,358.7146,135.6955,353.1047,131.008,361.7665" style="stroke:#181818;stroke-width:1.0;"/></g><!--link request_actuator to require_val--><g id="link_request_actuator_require_val"><path d="M580.505,277.4495 C570.101,292.4955 539.206,337.1745 525.581,356.8785 " fill="none" id="request_actuator-to-require_val" style="stroke:#181818;stroke-width:1.0;"/><polygon fill="#181818" points="522.512,361.3165,530.9211,356.1894,525.356,357.2041,524.3412,351.639,522.512,361.3165" style="stroke:#181818;stroke-width:1.0;"/></g><!--link request_sensor to require_val--><g id="link_request_sensor_require_val"><path d="M458.441,277.4495 C468.685,292.4955 499.105,337.1745 512.52,356.8785 " fill="none" id="request_sensor-to-require_val" style="stroke:#181818;stroke-width:1.0;"/><polygon fill="#181818" points="515.542,361.3165,513.7826,351.6261,512.7278,357.1837,507.1701,356.1289,515.542,361.3165" style="stroke:#181818;stroke-width:1.0;"/></g><!--link provide_temp to get_sensor--><g id="link_provide_temp_get_sensor"><path d="M417.002,361.3165 C405.03,346.1095 369.359,300.7975 354.077,281.3855 " fill="none" id="provide_temp-to-get_sensor" style="stroke:#181818;stroke-width:1.0;"/><polygon fill="#181818" points="350.979,277.4495,353.4033,286.9953,354.0719,281.3781,359.6891,282.0467,350.979,277.4495" style="stroke:#181818;stroke-width:1.0;"/></g><!--link provide_lum_motion to get_cmd--><g id="link_provide_lum_motion_get_cmd"><path d="M658.181,362.4095 C673.566,352.3645 714.531,324.8495 745,297.3955 C787.509,259.0925 831.597,206.4665 848.655,185.5265 " fill="none" id="provide_lum_motion-to-get_cmd" style="stroke:#181818;stroke-width:1.0;"/><polygon fill="#181818" points="851.874,181.5555,843.0993,186.0283,848.7255,185.4397,849.3141,191.0659,851.874,181.5555" style="stroke:#181818;stroke-width:1.0;"/></g><!--link MQTT to toMQTT--><g id="link_MQTT_toMQTT"><path d="M640,553.6425 C640,571.6515 640,608.7885 640,626.9425 " fill="none" id="MQTT-toMQTT" style="stroke:#181818;stroke-width:1.0;"/><polygon fill="#181818" points="640,548.4495,636,557.4495,640,553.4495,644,557.4495,640,548.4495" style="stroke:#181818;stroke-width:1.0;"/><polygon fill="#181818" points="640,632.3165,644,623.3165,640,627.3165,636,623.3165,640,632.3165" style="stroke:#181818;stroke-width:1.0;"/></g><!--link provide_cmd to human_input--><g id="link_provide_cmd_human_input"><path d="M883.814,363.3515 C856.392,349.8555 745.584,295.3215 710.035,277.8265 " fill="none" id="provide_cmd-to-human_input" style="stroke:#181818;stroke-width:1.0;"/><polygon fill="#181818" points="705.355,275.5235,711.6635,283.0868,709.841,277.7315,715.1963,275.9091,705.355,275.5235" style="stroke:#181818;stroke-width:1.0;"/></g><!--SRC=[RL9DQyCm3BtxL-ZMK_z06OCT1jqXOoFTEPX4pGp-o6IxK4R_-smtyUmqXe3pdlKaFKbneS_45S89rOJ4dIU4tcX7Hah6TiUlvkMT4VQEwr4YD5UBydmuUiKr_388PpBaX0QBUkXwDIGi4yOx6D5r5ouzMdOBaXzlJI4u2NK8IA6rX0H1QuXLEE5FaCdS5iLxvxbR1tx7WhjmcxpR88IEU29se-SqsFm8qd_d_lrPKqdYtbfRjMP3QsrJsnJB58JH45RY4vcB633bsSAbLvqoJXXTDzPydaufTrlPQeEjuVEInv2Y170cXxngfF4Abb-GYbYqXplJ9QQkFqvcSyfBeP6yvSrPjWBspvNL9Rv8ibrO1bPE2lOpFQ_FUiQ9Bnsjz-E13XciOgNLESEyKOzsvnUnn6WTF4Lajd5bOc72gkC_]--></g></svg>